<svg aria-hidden="true" style="position: absolute; width: 0; height: 0; overflow: hidden;" version="1.1" xmlns="http://www.w3.org/2000/svg" xmlns:xlink="http://www.w3.org/1999/xlink">
<defs>
<symbol id="icon-facebook" viewBox="0 0 32 32">
<path fill="#fe753f" style="fill: var(--color1, #fe753f)" d="M16 0c8.837 0 16 7.163 16 16s-7.163 16-16 16c-8.837 0-16-7.163-16-16s7.163-16 16-16z"></path>
<path fill="#fff" style="fill: var(--color2, #fff)" d="M18.027 11.787h1.173v-2.101c-0.203-0.021-0.896-0.085-1.707-0.085-1.685 0-2.837 1.088-2.837 3.093v1.845h-1.856v2.347h1.856v5.899h2.272v-5.899h1.792l0.277-2.347h-2.069v-1.611c0-0.683 0.181-1.141 1.099-1.141z"></path>
</symbol>
<symbol id="icon-instagram" viewBox="0 0 32 32">
<path fill="#fe753f" style="fill: var(--color1, #fe753f)" d="M16 0c8.837 0 16 7.163 16 16s-7.163 16-16 16c-8.837 0-16-7.163-16-16s7.163-16 16-16z"></path>
<path fill="#fff" style="fill: var(--color2, #fff)" d="M20.267 9.6h-8.533c-0.576 0-1.109 0.224-1.515 0.619-0.395 0.405-0.619 0.939-0.619 1.515v8.533c0 0.565 0.224 1.099 0.619 1.504 0.405 0.395 0.939 0.629 1.515 0.629h8.533c0.565 0 1.099-0.235 1.504-0.629 0.395-0.405 0.629-0.939 0.629-1.504v-8.533c0-0.576-0.235-1.109-0.629-1.515-0.405-0.395-0.939-0.619-1.504-0.619zM21.333 20.267c0 0.277-0.117 0.544-0.32 0.747s-0.469 0.32-0.747 0.32h-8.533c-0.297-0.001-0.565-0.123-0.757-0.32l-0-0c-0.191-0.19-0.309-0.453-0.309-0.744 0-0.001 0-0.002 0-0.003v0-8.533c-0-0.003-0-0.007-0-0.011 0-0.583 0.473-1.056 1.056-1.056 0.004 0 0.008 0 0.011 0h8.533c0.277 0 0.544 0.107 0.747 0.309 0.197 0.193 0.319 0.461 0.32 0.757v8.534z"></path>
<path fill="#fff" style="fill: var(--color2, #fff)" d="M16 12.8c-0.005-0-0.011-0-0.018-0-1.323 0-2.457 0.805-2.94 1.952l-0.008 0.021c-0.235 0.587-0.299 1.227-0.181 1.845 0.128 0.619 0.427 1.195 0.875 1.643s1.024 0.747 1.643 0.875c0.619 0.117 1.259 0.053 1.845-0.181 0.587-0.245 1.088-0.651 1.44-1.184 0.352-0.523 0.544-1.141 0.544-1.771 0-0.853-0.341-1.664-0.939-2.272-0.608-0.597-1.419-0.928-2.261-0.928zM16 18.133c-0.427 0-0.843-0.128-1.195-0.363s-0.619-0.565-0.779-0.96c-0.16-0.395-0.203-0.821-0.128-1.237 0.085-0.405 0.288-0.789 0.587-1.088s0.683-0.501 1.088-0.587c0.416-0.075 0.843-0.032 1.237 0.128s0.725 0.437 0.96 0.779c0.235 0.352 0.363 0.768 0.363 1.195 0 0.565-0.235 1.099-0.629 1.504-0.405 0.395-0.939 0.629-1.504 0.629z"></path>
<path fill="#fff" style="fill: var(--color2, #fff)" d="M20.267 12.533c0 0.442-0.358 0.8-0.8 0.8s-0.8-0.358-0.8-0.8v0c0-0.448 0.352-0.8 0.8-0.8 0.437 0 0.8 0.352 0.8 0.8z"></path>
</symbol>
<symbol id="icon-linkedin" viewBox="0 0 32 32">
<path fill="#fe753f" style="fill: var(--color1, #fe753f)" d="M16 0c8.837 0 16 7.163 16 16s-7.163 16-16 16c-8.837 0-16-7.163-16-16s7.163-16 16-16z"></path>
<path fill="#fff" style="fill: var(--color2, #fff)" d="M22.389 22.784v-4.832c0-2.368-0.491-4.192-3.179-4.192-1.291 0-2.155 0.725-2.507 1.419h-0.043v-1.195h-2.539v8.8h2.645v-4.363c0-1.141 0.213-2.251 1.589-2.251 1.365 0 1.387 1.312 1.387 2.325v4.288h2.645zM9.803 13.984h2.656v8.8h-2.656v-8.8zM11.136 9.6c-0.853 0-1.536 0.704-1.536 1.579s0.683 1.6 1.536 1.6c0.843 0 1.536-0.725 1.536-1.6s-0.693-1.579-1.536-1.579z"></path>
</symbol>
<symbol id="icon-twitter" viewBox="0 0 32 32">
<path fill="#fe753f" style="fill: var(--color1, #fe753f)" d="M16 0c8.837 0 16 7.163 16 16s-7.163 16-16 16c-8.837 0-16-7.163-16-16s7.163-16 16-16z"></path>
<path fill="#fff" style="fill: var(--color2, #fff)" d="M23.467 11.36c-0.565 0.245-1.152 0.405-1.771 0.491 0.64-0.384 1.12-0.981 1.344-1.696-0.587 0.352-1.237 0.608-1.941 0.747-0.555-0.608-1.355-0.971-2.229-0.971-1.691 0-3.061 1.371-3.061 3.061v0c0 0.245 0.021 0.469 0.075 0.693-2.549-0.117-4.8-1.344-6.315-3.2-0.267 0.459-0.416 0.981-0.416 1.547 0 1.067 0.544 2.005 1.355 2.549-0.491-0.011-0.971-0.16-1.376-0.384v0.032c0 1.493 1.056 2.731 2.443 3.008-0.245 0.075-0.512 0.107-0.8 0.107-0.192 0-0.395-0.011-0.576-0.053 0.407 1.224 1.526 2.097 2.854 2.133l0.004 0c-1.037 0.812-2.36 1.301-3.797 1.301-0.256 0-0.508-0.015-0.755-0.046l0.030 0.003c1.355 0.875 2.955 1.376 4.693 1.376 5.632 0 8.715-4.661 8.715-8.704 0-0.139-0.011-0.267-0.011-0.405 0.608-0.427 1.109-0.96 1.536-1.589z"></path>
</symbol>
<symbol id="icon-youtube" viewBox="0 0 32 32">
<path fill="#fe753f" style="fill: var(--color1, #fe753f)" d="M16 0c8.837 0 16 7.163 16 16s-7.163 16-16 16c-8.837 0-16-7.163-16-16s7.163-16 16-16z"></path>
<path fill="#fff" style="fill: var(--color2, #fff)" d="M20.939 10.667h-9.888c-0.661 0-1.312 0.267-1.781 0.757-0.455 0.471-0.736 1.114-0.736 1.822 0 0.008 0 0.016 0 0.024v-0.001 5.451c0 0.693 0.256 1.355 0.736 1.845 0.469 0.491 1.12 0.768 1.781 0.768h9.888c0.661 0 1.312-0.277 1.781-0.768 0.48-0.491 0.747-1.152 0.747-1.845v-5.451c0-0.693-0.267-1.355-0.747-1.845-0.469-0.491-1.12-0.757-1.781-0.757zM18.923 16.096l-4.48 2.379c-0.021 0-0.043 0.011-0.064 0.011-0.011 0-0.032-0.011-0.053-0.021-0.011-0.011-0.032-0.021-0.043-0.043s-0.011-0.032-0.011-0.053v-4.747c0-0.021 0-0.032 0.011-0.053s0.032-0.032 0.043-0.043c0.021-0.011 0.043-0.021 0.053-0.021 0.021 0 0.043 0.011 0.064 0.011l4.48 2.379c0.011 0.011 0.032 0.021 0.043 0.043s0.021 0.043 0.021 0.064c0 0.021-0.011 0.043-0.021 0.053-0.011 0.021-0.032 0.043-0.043 0.053v-0.011z"></path>
</symbol>
</defs>
</svg>
